<svg width="42" height="42" viewBox="0 0 42 42" fill="none" xmlns="http://www.w3.org/2000/svg">
<g id="plus-icon 1" clip-path="url(#clip0_32_264)">
<g id="Group">
<path id="Vector" fill-rule="evenodd" clip-rule="evenodd" d="M37.255 16.1219C39.8811 16.1017 42.0055 18.2176 42 20.8493C41.9939 23.4803 39.8603 25.6295 37.2345 25.65L25.7179 25.7305L25.6375 37.2811C25.616 39.8902 23.4711 42.0031 20.8474 42C18.223 41.9966 16.114 39.8779 16.1355 37.2681L16.2152 25.7973L4.74469 25.8778C2.11924 25.8983 -0.00545844 23.782 1.05342e-05 21.1507C0.00616313 18.5197 2.14009 16.3705 4.76588 16.3503L16.2822 16.2695L16.3628 4.71887C16.3847 2.1098 18.5292 -0.00307862 21.153 3.36742e-06C23.7774 0.00308536 25.8864 2.12213 25.8645 4.73189L25.7848 16.2027L37.255 16.1219Z" fill="#696600"/>
</g>
</g>
<defs>
<clipPath id="clip0_32_264">
<rect width="42" height="42" fill="white"/>
</clipPath>
</defs>
</svg>
