<svg width="21" height="20" viewBox="0 0 21 20" fill="none" xmlns="http://www.w3.org/2000/svg">
<path id="Vector" d="M16.8319 3.38581e-07C17.5061 -0.000273667 18.17 0.165766 18.7647 0.483407C19.3595 0.801047 19.8666 1.26048 20.2414 1.821C20.6161 2.38151 20.8467 3.0258 20.9129 3.69678C20.9791 4.36775 20.8788 5.0447 20.6208 5.66762C20.3628 6.29055 19.9552 6.84022 19.434 7.26793C18.9128 7.69565 18.2941 7.98819 17.6328 8.11966C16.9715 8.25112 16.288 8.21743 15.6428 8.02158C14.9977 7.82573 14.4108 7.47377 13.9342 6.99688C13.8978 6.96047 13.863 6.92406 13.8283 6.886L8.67493 9.03736C8.79318 9.52175 8.8229 10.0235 8.76264 10.5185L14.0004 12.9594C14.7249 12.2716 15.6765 11.8734 16.675 11.8403C17.6735 11.8072 18.6494 12.1415 19.4179 12.7799C20.1864 13.4183 20.694 14.3164 20.8445 15.304C20.9951 16.2916 20.7782 17.3002 20.2348 18.1385C19.6915 18.9769 18.8595 19.5868 17.8965 19.8527C16.9336 20.1187 15.9065 20.0222 15.0099 19.5814C14.1133 19.1407 13.4096 18.3864 13.032 17.4615C12.6544 16.5366 12.6292 15.5053 12.9611 14.563L8.09903 12.2892C7.62938 12.9919 6.95398 13.5323 6.16533 13.8363C5.37668 14.1403 4.51334 14.1931 3.69353 13.9874C2.87372 13.7818 2.13753 13.3277 1.58577 12.6874C1.034 12.0472 0.693643 11.252 0.6113 10.4108C0.528957 9.56961 0.708654 8.72353 1.12579 7.98842C1.54292 7.25331 2.17709 6.66512 2.94145 6.30438C3.70582 5.94365 4.563 5.82801 5.39563 5.97331C6.22826 6.11861 6.99562 6.51773 7.59264 7.11603C7.66545 7.18885 7.73661 7.26497 7.80281 7.34275L12.8899 5.22118C12.7164 4.61134 12.6867 3.96955 12.8031 3.34628C12.9196 2.72301 13.179 2.13526 13.5611 1.62923C13.9431 1.1232 14.4374 0.712693 15.0049 0.429993C15.5724 0.147292 16.1978 0.000103546 16.8319 3.38581e-07Z" fill="#696600"/>
</svg>
