<svg width="20" height="20" viewBox="0 0 20 20" fill="none" xmlns="http://www.w3.org/2000/svg">
<g id="pencil-icon 1" clip-path="url(#clip0_32_196)">
<g id="Group">
<path id="Vector" fill-rule="evenodd" clip-rule="evenodd" d="M15.7617 0.361328L19.4108 4.01042C19.8926 4.49219 19.8926 5.27995 19.4108 5.76172L17.3926 7.77995L11.9922 2.37956L14.0104 0.361328C14.4922 -0.120443 15.2799 -0.120443 15.7617 0.361328ZM11.4225 8.49447V8.49609C11.5723 8.64583 11.6471 8.8444 11.6471 9.03971C11.6471 9.23503 11.5723 9.43197 11.4225 9.58333V9.58496L11.4209 9.58659L6.52506 14.484H6.52343C6.48111 14.5264 6.43391 14.5622 6.38671 14.5931H6.38509C6.33626 14.624 6.2858 14.6484 6.23372 14.6663C5.96354 14.7607 5.64941 14.6989 5.43456 14.484H5.43294V14.4824C5.39062 14.4401 5.35481 14.3929 5.32389 14.3457V14.3441C5.29296 14.2952 5.26855 14.2448 5.25064 14.1927C5.15624 13.9225 5.21809 13.6084 5.43131 13.3936V13.3919L10.3288 8.49447H10.3304C10.4801 8.34473 10.6787 8.26986 10.874 8.26986C11.0693 8.26986 11.2663 8.34473 11.4176 8.49447H11.4225ZM7.40234 17.7588C5.94075 18.2113 4.48079 18.6621 3.0192 19.1146C-0.415046 20.1774 -0.400397 20.8854 0.537103 17.5781L2.01334 12.3698L2.00846 12.3649L10.97 3.40169L16.3704 8.80208L7.40722 17.7653L7.40234 17.7588ZM2.93456 13.291L6.48111 16.8376C5.52083 17.1338 4.56054 17.43 3.60188 17.7246C1.34602 18.4196 1.35579 18.8851 1.96939 16.7122L2.93456 13.291Z" fill="#696600"/>
</g>
</g>
<defs>
<clipPath id="clip0_32_196">
<rect width="19.7721" height="20" fill="white"/>
</clipPath>
</defs>
</svg>
