<svg width="31" height="20" viewBox="0 0 31 20" fill="none" xmlns="http://www.w3.org/2000/svg">
<g id="Group">
<path id="Vector" d="M23.7871 2.58057C26.3009 4.2731 28.466 6.72714 30.1084 9.70876L30.2684 10L30.1084 10.2889C28.466 13.2705 26.2985 15.7245 23.7871 17.417C21.3355 19.069 18.552 20 15.6014 20C12.6508 20 9.86734 19.069 7.41807 17.4194C4.90195 15.7245 2.73676 13.2705 1.09436 10.2889L0.934418 10L1.09436 9.70876C2.73676 6.72714 4.90195 4.2731 7.41568 2.58057C9.86734 0.93101 12.6508 0 15.6014 0C18.552 0 21.3331 0.93101 23.7871 2.58057ZM15.4462 5.29243L16.4202 5.38553C16.0741 5.90594 15.8688 6.53617 15.8688 7.21652C15.8688 9.00215 17.2677 10.4488 18.996 10.4488C19.5498 10.4488 20.0703 10.3008 20.5214 10.0382C20.5286 10.1504 20.5334 10.2626 20.5334 10.3772C20.5334 13.1869 18.256 15.4643 15.4462 15.4643C12.6365 15.4643 10.3591 13.1869 10.3591 10.3772C10.3591 7.56983 12.6365 5.29243 15.4462 5.29243ZM26.9549 10C25.642 7.69396 23.9447 5.79852 21.9919 4.48317C20.0702 3.18931 17.8979 2.45882 15.6014 2.45882C13.3073 2.45882 11.1349 3.18931 9.21324 4.48317C7.26051 5.79852 5.56321 7.69396 4.24786 10C5.56082 12.306 7.26051 14.2015 9.21324 15.5144C11.1349 16.8083 13.3073 17.5388 15.6014 17.5388C17.8979 17.5388 20.0679 16.8083 21.9919 15.5144C23.9447 14.2015 25.642 12.306 26.9549 10Z" fill="#7A7711"/>
</g>
</svg>
