<svg width="19" height="20" viewBox="0 0 19 20" fill="none" xmlns="http://www.w3.org/2000/svg">
<g id="flag-icon 1" clip-path="url(#clip0_32_489)">
<g id="Group">
<path id="Vector" fill-rule="evenodd" clip-rule="evenodd" d="M3.32292 2.88786C10.9132 -2.35921 11.4801 8.02555 18.9344 1.54167V12.1227C11.8249 18.5158 10.2912 8.18636 3.32292 13.4359V2.88786ZM1.44824 0C2.24821 0 2.89665 0.648763 2.89665 1.44824C2.89665 1.97933 2.61051 2.44336 2.18457 2.69548H2.25293V3.93636V16.064V17.3049H2.18457C2.61051 17.557 2.89665 17.8866 2.89665 18.5519C2.89665 19.2171 2.24821 19.9998 1.44824 19.9998C0.648438 19.9998 0 19.217 0 18.5519C0 17.8866 0.28597 17.557 0.711914 17.3049H0.643717V16.064V3.93636V2.69548H0.711914C0.28597 2.44336 0 1.97949 0 1.44824C0 0.648763 0.648438 0 1.44824 0Z" fill="#7A7711"/>
</g>
</g>
<defs>
<clipPath id="clip0_32_489">
<rect width="18.9344" height="20" fill="white"/>
</clipPath>
</defs>
</svg>
