<svg width="18" height="20" viewBox="0 0 18 20" fill="none" xmlns="http://www.w3.org/2000/svg">
<g id="Group">
<path id="Vector" fill-rule="evenodd" clip-rule="evenodd" d="M0.472087 1.56795H6.70532V0.612059C6.70532 0.275471 6.98022 8.01086e-05 7.3173 8.01086e-05H10.7587C11.0956 8.01086e-05 11.3707 0.275308 11.3707 0.612059V1.56811H17.5279C17.7384 1.56811 17.9099 1.74015 17.9099 1.95044V3.82446H0.0900879V1.95028C0.0900879 1.73999 0.2618 1.56795 0.472087 1.56795ZM1.50448 4.8186H16.6283C16.9436 4.8186 17.2299 5.07886 17.2014 5.39217L15.9215 19.4268C15.8931 19.7403 15.6627 19.9999 15.3481 19.9999H2.76668C2.4519 19.9999 2.22111 19.7408 2.19312 19.4268L0.930908 5.39217C0.902913 5.07772 1.18888 4.8186 1.50448 4.8186ZM11.3331 6.99845H12.9389V17.629H11.3331V6.99845ZM4.98462 6.99845H6.59058V17.629H4.98462V6.99845ZM8.15845 6.99845H9.76473V17.629H8.15845V6.99845Z" fill="#006699"/>
</g>
</svg>
