<svg width="25" height="25" viewBox="0 0 25 25" fill="none" xmlns="http://www.w3.org/2000/svg">
<g clip-path="url(#clip0_70_98)">
<path d="M19.5312 0H5.46875C4.01835 0 2.62735 0.57617 1.60176 1.60176C0.57617 2.62735 0 4.01835 0 5.46875L0 19.5312C0 20.9817 0.57617 22.3727 1.60176 23.3982C2.62735 24.4238 4.01835 25 5.46875 25H19.5312C20.9817 25 22.3727 24.4238 23.3982 23.3982C24.4238 22.3727 25 20.9817 25 19.5312V5.46875C25 4.01835 24.4238 2.62735 23.3982 1.60176C22.3727 0.57617 20.9817 0 19.5312 0ZM23.4375 19.5312C23.4375 20.5673 23.0259 21.5608 22.2934 22.2934C21.5608 23.0259 20.5673 23.4375 19.5312 23.4375H5.46875C4.43275 23.4375 3.43918 23.0259 2.70661 22.2934C1.97405 21.5608 1.5625 20.5673 1.5625 19.5312V5.46875C1.5625 4.43275 1.97405 3.43918 2.70661 2.70661C3.43918 1.97405 4.43275 1.5625 5.46875 1.5625H19.5312C20.5673 1.5625 21.5608 1.97405 22.2934 2.70661C23.0259 3.43918 23.4375 4.43275 23.4375 5.46875V19.5312Z" fill="#006699"/>
<path d="M7.8125 5.46875H6.25C5.81853 5.46875 5.46875 5.81853 5.46875 6.25V7.8125C5.46875 8.24397 5.81853 8.59375 6.25 8.59375H7.8125C8.24397 8.59375 8.59375 8.24397 8.59375 7.8125V6.25C8.59375 5.81853 8.24397 5.46875 7.8125 5.46875Z" fill="#006699"/>
<path d="M7.8125 10.9375H6.25C5.81853 10.9375 5.46875 11.2873 5.46875 11.7188V13.2812C5.46875 13.7127 5.81853 14.0625 6.25 14.0625H7.8125C8.24397 14.0625 8.59375 13.7127 8.59375 13.2812V11.7188C8.59375 11.2873 8.24397 10.9375 7.8125 10.9375Z" fill="#006699"/>
<path d="M7.8125 16.4062H6.25C5.81853 16.4062 5.46875 16.756 5.46875 17.1875V18.75C5.46875 19.1815 5.81853 19.5312 6.25 19.5312H7.8125C8.24397 19.5312 8.59375 19.1815 8.59375 18.75V17.1875C8.59375 16.756 8.24397 16.4062 7.8125 16.4062Z" fill="#006699"/>
<path d="M19.5312 6.25H10.1562V7.8125H19.5312V6.25Z" fill="#006699"/>
<path d="M19.5312 11.7188H10.1562V13.2812H19.5312V11.7188Z" fill="#006699"/>
<path d="M19.5312 17.1875H10.1562V18.75H19.5312V17.1875Z" fill="#006699"/>
</g>
<defs>
<clipPath id="clip0_70_98">
<rect width="25" height="25" fill="white"/>
</clipPath>
</defs>
</svg>
