<svg width="30" height="30" viewBox="0 0 30 30" fill="none" xmlns="http://www.w3.org/2000/svg">
<g id="Vector" filter="url(#filter0_b_13_169)">
<path d="M1.72217 21.4457C1.71481 20.5229 1.70746 19.6002 1.72693 18.5994C1.77678 18.4841 1.76731 18.4508 1.72536 18.4214C1.22806 17.5517 0.728814 16.6831 0.234175 15.8119C-0.080444 15.2578 -0.0768095 14.7016 0.237646 14.1461C0.52274 13.6424 0.768254 13.1129 1.09622 12.638C1.50748 12.0424 1.76128 11.4364 1.70803 10.6962C1.65897 10.0142 1.69894 9.3261 1.74224 8.55013C1.804 8.38161 1.8232 8.30364 1.84239 8.22568C1.8847 7.24406 2.71764 6.9092 3.41105 6.61452C4.93096 5.96861 5.87109 4.88003 6.55515 3.44482C6.932 2.65415 7.57612 2.0305 8.6326 2.18962C8.76957 2.21025 8.91636 2.17171 9.05218 2.19563C10.8223 2.5075 12.2742 1.76827 13.6623 0.844216C14.3489 0.387119 15.0461 0.412355 15.7387 0.760551C16.4223 1.10424 17.0588 1.5407 17.7508 1.86501C18.1421 2.04844 18.5989 2.14338 19.0347 2.17931C19.6611 2.23095 20.3025 2.2516 20.9246 2.17922C21.9692 2.05769 22.6254 2.56472 23.1272 3.35296C23.5089 3.95242 23.7482 4.66723 24.2251 5.17263C24.7592 5.73863 25.4933 6.12172 26.1334 6.59345C26.629 6.9587 27.1619 7.29329 27.584 7.72919C27.8045 7.95683 27.8764 8.36729 27.9173 8.70655C27.9718 9.15845 27.9906 9.63061 27.9193 10.0779C27.7224 11.3119 28.3024 12.2817 28.9091 13.2722C29.3717 14.0276 29.9991 14.7864 29.4771 15.7609C29.0969 16.4707 28.6573 17.1504 28.2915 17.8668C28.115 18.2124 27.9821 18.6052 27.944 18.9876C27.8564 19.8645 27.8491 20.7488 27.7903 21.6288C27.7417 22.3557 27.2664 22.7816 26.6541 23.1007C26.3936 23.2365 26.1552 23.43 25.8804 23.5195C24.4027 24.0008 23.8213 25.2825 23.2004 26.4767C22.6849 27.4682 21.9216 27.8862 20.8501 27.9037C20.4764 27.9098 20.0941 27.9543 19.73 27.8957C18.4666 27.6925 17.4575 28.2426 16.4787 28.8949C15.4757 29.5634 14.4709 29.7772 13.3997 29.0227C12.9772 28.7251 12.526 28.4518 12.0533 28.2423C11.6687 28.0718 11.2383 27.9628 10.818 27.9176C10.31 27.8631 9.78987 27.8806 9.27748 27.9093C7.87167 27.9881 6.84177 27.4788 6.29022 26.1598C6.19603 25.9345 6.02029 25.7407 5.9355 25.5133C5.48983 24.3178 4.35685 23.9275 3.36659 23.3611C2.72189 22.9923 1.99001 22.6915 1.84333 21.7439C1.80071 21.5832 1.76144 21.5144 1.72217 21.4457ZM13.7663 19.7246C14.4472 19.1486 15.0943 19.1564 15.8451 19.6796C16.4862 20.1263 17.224 20.4479 17.9413 20.7785C18.6536 21.1068 19.0461 20.8699 18.9463 20.1959C18.8484 19.5341 18.7395 18.8689 18.5624 18.2246C18.2672 17.1508 18.3641 16.2275 19.3978 15.5706C19.4927 15.5104 19.596 15.4578 19.677 15.3826C20.1165 14.975 20.5786 14.5859 20.9774 14.1425C21.3325 13.7477 21.2042 13.2801 20.748 13.2048C20.027 13.086 19.3006 12.9729 18.5721 12.9304C17.5495 12.8708 16.7339 12.6261 16.4023 11.5121C16.2086 10.8615 15.8624 10.2465 15.5227 9.64951C15.3858 9.40892 15.0962 9.13445 14.8511 9.10919C14.669 9.09043 14.3768 9.41321 14.2544 9.64512C13.8058 10.4952 13.4335 11.3845 12.9738 12.2284C12.8446 12.4657 12.5373 12.706 12.2729 12.7589C11.335 12.9466 10.3781 13.041 9.43338 13.1994C9.14258 13.2481 8.71043 13.3142 8.61803 13.5022C8.41872 13.9079 8.70309 14.2546 9.04027 14.5484C9.74924 15.1662 10.4456 15.7995 11.1155 16.4574C11.2698 16.6089 11.3919 16.8975 11.3644 17.1017C11.2754 17.7619 11.0781 18.4078 10.9828 19.0676C10.8906 19.7062 10.8728 20.3552 10.8101 21.1564C10.5416 22.1986 12.8014 20.2044 13.7663 19.7246Z" fill="url(#paint0_linear_13_169)"/>
<path d="M1.72217 21.4457C1.71481 20.5229 1.70746 19.6002 1.72693 18.5994C1.77678 18.4841 1.76731 18.4508 1.72536 18.4214C1.22806 17.5517 0.728814 16.6831 0.234175 15.8119C-0.080444 15.2578 -0.0768095 14.7016 0.237646 14.1461C0.52274 13.6424 0.768254 13.1129 1.09622 12.638C1.50748 12.0424 1.76128 11.4364 1.70803 10.6962C1.65897 10.0142 1.69894 9.3261 1.74224 8.55013C1.804 8.38161 1.8232 8.30364 1.84239 8.22568C1.8847 7.24406 2.71764 6.9092 3.41105 6.61452C4.93096 5.96861 5.87109 4.88003 6.55515 3.44482C6.932 2.65415 7.57612 2.0305 8.6326 2.18962C8.76957 2.21025 8.91636 2.17171 9.05218 2.19563C10.8223 2.5075 12.2742 1.76827 13.6623 0.844216C14.3489 0.387119 15.0461 0.412355 15.7387 0.760551C16.4223 1.10424 17.0588 1.5407 17.7508 1.86501C18.1421 2.04844 18.5989 2.14338 19.0347 2.17931C19.6611 2.23095 20.3025 2.2516 20.9246 2.17922C21.9692 2.05769 22.6254 2.56472 23.1272 3.35296C23.5089 3.95242 23.7482 4.66723 24.2251 5.17263C24.7592 5.73863 25.4933 6.12172 26.1334 6.59345C26.629 6.9587 27.1619 7.29329 27.584 7.72919C27.8045 7.95683 27.8764 8.36729 27.9173 8.70655C27.9718 9.15845 27.9906 9.63061 27.9193 10.0779C27.7224 11.3119 28.3024 12.2817 28.9091 13.2722C29.3717 14.0276 29.9991 14.7864 29.4771 15.7609C29.0969 16.4707 28.6573 17.1504 28.2915 17.8668C28.115 18.2124 27.9821 18.6052 27.944 18.9876C27.8564 19.8645 27.8491 20.7488 27.7903 21.6288C27.7417 22.3557 27.2664 22.7816 26.6541 23.1007C26.3936 23.2365 26.1552 23.43 25.8804 23.5195C24.4027 24.0008 23.8213 25.2825 23.2004 26.4767C22.6849 27.4682 21.9216 27.8862 20.8501 27.9037C20.4764 27.9098 20.0941 27.9543 19.73 27.8957C18.4666 27.6925 17.4575 28.2426 16.4787 28.8949C15.4757 29.5634 14.4709 29.7772 13.3997 29.0227C12.9772 28.7251 12.526 28.4518 12.0533 28.2423C11.6687 28.0718 11.2383 27.9628 10.818 27.9176C10.31 27.8631 9.78987 27.8806 9.27748 27.9093C7.87167 27.9881 6.84177 27.4788 6.29022 26.1598C6.19603 25.9345 6.02029 25.7407 5.9355 25.5133C5.48983 24.3178 4.35685 23.9275 3.36659 23.3611C2.72189 22.9923 1.99001 22.6915 1.84333 21.7439C1.80071 21.5832 1.76144 21.5144 1.72217 21.4457ZM13.7663 19.7246C14.4472 19.1486 15.0943 19.1564 15.8451 19.6796C16.4862 20.1263 17.224 20.4479 17.9413 20.7785C18.6536 21.1068 19.0461 20.8699 18.9463 20.1959C18.8484 19.5341 18.7395 18.8689 18.5624 18.2246C18.2672 17.1508 18.3641 16.2275 19.3978 15.5706C19.4927 15.5104 19.596 15.4578 19.677 15.3826C20.1165 14.975 20.5786 14.5859 20.9774 14.1425C21.3325 13.7477 21.2042 13.2801 20.748 13.2048C20.027 13.086 19.3006 12.9729 18.5721 12.9304C17.5495 12.8708 16.7339 12.6261 16.4023 11.5121C16.2086 10.8615 15.8624 10.2465 15.5227 9.64951C15.3858 9.40892 15.0962 9.13445 14.8511 9.10919C14.669 9.09043 14.3768 9.41321 14.2544 9.64512C13.8058 10.4952 13.4335 11.3845 12.9738 12.2284C12.8446 12.4657 12.5373 12.706 12.2729 12.7589C11.335 12.9466 10.3781 13.041 9.43338 13.1994C9.14258 13.2481 8.71043 13.3142 8.61803 13.5022C8.41872 13.9079 8.70309 14.2546 9.04027 14.5484C9.74924 15.1662 10.4456 15.7995 11.1155 16.4574C11.2698 16.6089 11.3919 16.8975 11.3644 17.1017C11.2754 17.7619 11.0781 18.4078 10.9828 19.0676C10.8906 19.7062 10.8728 20.3552 10.8101 21.1564C10.5416 22.1986 12.8014 20.2044 13.7663 19.7246Z" fill="url(#paint1_linear_13_169)"/>
</g>
<defs>
<filter id="filter0_b_13_169" x="-4" y="-3.5" width="37.6744" height="37" filterUnits="userSpaceOnUse" color-interpolation-filters="sRGB">
<feFlood flood-opacity="0" result="BackgroundImageFix"/>
<feGaussianBlur in="BackgroundImageFix" stdDeviation="2"/>
<feComposite in2="SourceAlpha" operator="in" result="effect1_backgroundBlur_13_169"/>
<feBlend mode="normal" in="SourceGraphic" in2="effect1_backgroundBlur_13_169" result="shape"/>
</filter>
<linearGradient id="paint0_linear_13_169" x1="24.0503" y1="22.9124" x2="4.96523" y2="2.18716" gradientUnits="userSpaceOnUse">
<stop stop-color="#E6DF13"/>
<stop offset="1" stop-color="#E6DF13" stop-opacity="0"/>
</linearGradient>
<linearGradient id="paint1_linear_13_169" x1="0.701176" y1="17.1374" x2="11.2907" y2="6.54759" gradientUnits="userSpaceOnUse">
<stop stop-color="#17A1E6"/>
<stop offset="1" stop-color="#17A1E6" stop-opacity="0"/>
</linearGradient>
</defs>
</svg>
