<svg width="37" height="25" viewBox="0 0 37 25" fill="none" xmlns="http://www.w3.org/2000/svg">
<g id="Group">
<path id="Vector" fill-rule="evenodd" clip-rule="evenodd" d="M25.7709 2.86576C27.1047 2.77209 28.5393 2.98965 29.4256 3.51846C30.4363 4.11978 31.0321 5.17437 31.0321 6.84539V8.30791C31.0321 8.96363 31.0084 8.98176 31.2426 9.32624C31.4204 9.58913 31.4619 9.61935 31.5182 9.93965C31.5982 10.3597 31.6012 10.7857 31.6071 11.2239C31.616 11.9068 31.3611 12.1032 31.0203 12.6562L29.5708 15.0101C29.1203 15.7444 28.7112 16.1916 28.8891 17.1223C29.2863 19.1862 35.087 20.3495 36.7083 21.0838V24.994H31.9925C31.9925 24.2566 32.2592 20.5913 31.8591 20.2891C26.9951 16.6298 20.5541 18.6664 25.4745 10.8492C25.8628 10.2146 25.8895 9.94569 26.1473 9.20839C26.6245 7.85465 26.5653 4.98702 25.7709 2.86576ZM11.2351 2.86576C9.90126 2.77209 8.46665 2.98965 7.5804 3.51846C6.56965 4.11978 5.97387 5.17437 5.97387 6.84539V8.30791C5.97387 8.96363 5.99758 8.98176 5.76342 9.32624C5.58558 9.58913 5.54704 9.61935 5.48776 9.93965C5.40773 10.3597 5.40477 10.7857 5.39884 11.2239C5.38995 11.9068 5.64486 12.1032 5.98573 12.6562L7.43516 15.0101C7.88569 15.7444 8.29474 16.1916 8.11689 17.1223C7.71081 19.1892 1.91309 20.3526 0.291748 21.0868V24.997H5.00462C5.00462 24.2597 4.73785 20.5943 5.138 20.2921C10.002 16.6328 16.443 18.6695 11.5226 10.8522C11.1343 10.2177 11.1076 9.94872 10.8498 9.21141C10.3814 7.85465 10.4407 4.98702 11.2351 2.86576ZM6.23471 24.997V21.102C8.06354 20.274 15.2188 18.4428 15.6664 16.1131C15.8679 15.0645 15.4026 14.5569 14.8957 13.7289L13.2596 11.0728C12.8772 10.4473 12.5867 10.2267 12.5986 9.45617C12.6045 9.02407 12.6104 8.59498 12.6727 8.17798C12.7497 7.64615 12.8149 7.62802 13.0876 7.19894C13.2714 6.91187 13.2507 6.82424 13.2507 6.16248V4.51261C13.2507 2.60589 13.9383 1.41533 15.1002 0.738458C16.7987 -0.24965 20.2459 -0.24965 21.9354 0.759611C23.0736 1.4395 23.7494 2.62705 23.7494 4.51261V6.16248C23.7494 6.90583 23.7227 6.92396 23.9865 7.31376C24.1881 7.60989 24.2325 7.64615 24.3007 8.00574C24.3896 8.47713 24.3956 8.96363 24.4015 9.45617C24.4133 10.2267 24.1258 10.4503 23.7405 11.0728L22.1073 13.7289C21.6004 14.5569 21.1351 15.0645 21.3396 16.1131C21.7901 18.4428 28.3348 19.7543 30.1607 20.5852V25L6.23471 24.997Z" fill="#006699"/>
</g>
</svg>
