<svg width="26" height="25" viewBox="0 0 26 25" fill="none" xmlns="http://www.w3.org/2000/svg">
<g id="plus-icon 2" clip-path="url(#clip0_70_82)">
<g id="Group">
<path id="Vector" fill-rule="evenodd" clip-rule="evenodd" d="M22.6756 9.59637C24.2388 9.58434 25.5033 10.8438 25.5 12.4103C25.4963 13.9764 24.2264 15.2557 22.6634 15.2679L15.8082 15.3158L15.7604 22.1911C15.7476 23.7442 14.4709 25.0018 12.9092 25C11.347 24.998 10.0917 23.7368 10.1045 22.1834L10.1519 15.3555L3.32422 15.4034C1.76145 15.4157 0.496751 14.156 0.500006 12.5897C0.503669 11.0236 1.77386 9.74435 3.33683 9.73232L10.1918 9.68422L10.2398 2.80885C10.2528 1.25583 11.5293 -0.00183251 13.0911 2.00442e-06C14.6532 0.00183652 15.9086 1.26317 15.8955 2.8166L15.8481 9.64447L22.6756 9.59637Z" fill="#006699"/>
</g>
</g>
<defs>
<clipPath id="clip0_70_82">
<rect width="25" height="25" fill="white" transform="translate(0.5)"/>
</clipPath>
</defs>
</svg>
