<svg width="15" height="17" viewBox="0 0 15 17" fill="none" xmlns="http://www.w3.org/2000/svg">
<g clip-path="url(#clip0_32_440)">
<path fill-rule="evenodd" clip-rule="evenodd" d="M0.305599 1.7543H5.29219V0.989583C5.29219 0.720313 5.51211 0.5 5.78177 0.5H8.53489C8.80443 0.5 9.02448 0.720182 9.02448 0.989583V1.75443H13.9503C14.1186 1.75443 14.2559 1.89206 14.2559 2.06029V3.55951H0V2.06016C0 1.89193 0.13737 1.7543 0.305599 1.7543ZM1.13151 4.35482H13.2306C13.4828 4.35482 13.7118 4.56302 13.6891 4.81367L12.6651 16.0414C12.6424 16.2922 12.4581 16.4999 12.2064 16.4999H2.14128C1.88945 16.4999 1.70482 16.2926 1.68242 16.0414L0.672656 4.81367C0.65026 4.56211 0.879036 4.35482 1.13151 4.35482ZM8.9944 6.0987H10.279V14.6031H8.9944V6.0987ZM3.91562 6.0987H5.20039V14.6031H3.91562V6.0987ZM6.45469 6.0987H7.73971V14.6031H6.45469V6.0987Z" fill="#696600"/>
</g>
<defs>
<clipPath id="clip0_32_440">
<rect width="14.2557" height="16" fill="white" transform="translate(0 0.5)"/>
</clipPath>
</defs>
</svg>
